# xmcd
#
# Track frame offsets:
# 150
# 10300
# 23962
# 33362
# 48127
# 60735
# 70282
# 87960
# 95850
# 108280
# 122187
# 135337
#
# Disc length: 1987 seconds
#
# Revision: 0
# Processed by: cddbd v1.4PL0 Copyright (c) Steve Scherf et al.
# Submitted via: Audion 3.0.2 (http://www.panic.com/audion/)
#
DISCID=9d07c10c
DTITLE=Françoise Hardy - Un Recuiel de Mes Poesies
DYEAR=1900
DGENRE=
TTITLE0=Viens
TTITLE1=La Question
TTITLE2=Meme Sous La Pluie
TTITLE3=Chanson D'o
TTITLE4=Le Martien
TTITLE5=Mer
TTITLE6=Oui Je Dis Adieu
TTITLE7=Doigts
TTITLE8=La Maison
TTITLE9=Si Mi Caballero
TTITLE10=Bati Mon Nid
TTITLE11=Reve
EXTD=
EXTT0=
EXTT1=
EXTT2=
EXTT3=
EXTT4=
EXTT5=
EXTT6=
EXTT7=
EXTT8=
EXTT9=
EXTT10=
EXTT11=
PLAYORDER=
